<?xml version="1.0" standalone="no"?>
<!DOCTYPE svg PUBLIC "-//W3C//DTD SVG 20010904//EN"
 "http://www.w3.org/TR/2001/REC-SVG-20010904/DTD/svg10.dtd">
<svg version="1.0" xmlns="http://www.w3.org/2000/svg"
 width="431.000000pt" height="431.000000pt" viewBox="0 0 431.000000 431.000000"
 preserveAspectRatio="xMidYMid meet">
<metadata>
Created by potrace 1.14, written by Peter Selinger 2001-2017
</metadata>
<g transform="translate(0.000000,431.000000) scale(0.100000,-0.100000)"
fill="#000000" stroke="none">
<path d="M703 4107 c-44 -44 -52 -59 -54 -94 -3 -39 -4 -40 -23 -28 -52 32
-70 28 -124 -29 -45 -47 -52 -59 -51 -93 1 -21 3 -30 6 -20 2 9 8 15 13 12 5
-3 12 0 16 6 4 7 3 9 -4 5 -18 -11 -21 8 -6 34 l15 25 -7 -24 c-4 -15 -2 -21
4 -17 6 3 13 2 17 -4 4 -6 10 -8 15 -5 5 3 11 1 15 -4 3 -6 12 -8 20 -4 8 3
15 1 15 -5 0 -6 9 -8 20 -5 11 3 20 0 20 -6 0 -6 5 -10 12 -8 6 1 12 -10 13
-25 1 -19 -2 -25 -12 -21 -8 3 -12 13 -9 22 4 11 2 10 -9 -3 -8 -11 -15 -15
-15 -9 0 7 -9 11 -20 10 -11 -1 -20 -4 -20 -8 0 -4 -9 -11 -20 -14 -11 -4 -17
-11 -14 -17 4 -7 2 -8 -4 -4 -7 4 -12 2 -12 -3 0 -6 -7 -11 -16 -11 -8 0 -13
-4 -10 -8 2 -4 1 -14 -3 -21 -5 -8 -8 9 -6 38 1 28 -2 51 -6 51 -5 0 -9 -577
-8 -1297 0 -852 4 -1290 10 -1274 5 14 7 31 5 38 -4 10 -1 11 13 4 10 -6 21
-7 25 -3 4 3 4 -2 0 -13 -7 -18 -6 -19 10 -6 12 10 20 11 24 4 4 -5 15 -9 25
-7 9 1 15 -2 12 -6 -3 -5 -1 -11 5 -15 5 -3 10 -1 10 4 0 6 5 11 11 11 5 0 7
-5 4 -11 -4 -6 0 -9 11 -7 16 3 18 -6 19 -84 0 -69 -2 -85 -12 -76 -7 6 -10
14 -7 19 3 5 -2 6 -10 3 -18 -7 -21 7 -6 22 8 8 6 15 -5 24 -8 7 -15 17 -15
23 0 6 7 2 15 -9 11 -13 14 -14 13 -4 -2 8 -7 18 -12 21 -4 4 -3 10 3 13 6 4
11 2 11 -4 0 -6 5 -8 11 -4 8 4 7 9 -2 15 -8 4 -15 13 -15 19 -1 5 -2 13 -3
17 0 3 -9 -1 -20 -11 -11 -10 -25 -14 -36 -10 -14 6 -16 3 -11 -14 8 -24 -11
-39 -27 -23 -9 9 -8 11 6 6 21 -9 22 8 2 25 -9 7 -14 19 -11 26 3 8 0 13 -7
11 -7 -1 -11 6 -9 18 5 28 -8 13 -13 -16 -3 -13 -9 -25 -15 -27 -12 -4 -14
-112 -2 -112 5 0 8 22 7 49 -1 29 4 56 13 67 14 18 14 18 8 1 -3 -10 -2 -16 3
-13 5 3 15 -2 22 -12 13 -15 12 -16 -3 -4 -13 11 -16 11 -14 0 1 -7 6 -19 10
-27 7 -10 6 -12 -4 -6 -9 6 -11 4 -5 -5 5 -8 4 -11 -3 -6 -6 3 -14 1 -18 -6
-4 -7 -4 -10 1 -6 11 10 47 -11 40 -23 -4 -5 -11 -9 -16 -9 -6 0 -7 5 -4 10 3
6 -1 10 -9 10 -36 0 -1 -27 54 -42 33 -9 57 -12 54 -7 -3 5 -1 9 4 9 6 0 12
-7 16 -15 3 -8 12 -15 21 -15 8 0 15 -7 15 -15 0 -8 6 -12 14 -9 8 3 17 0 21
-6 6 -9 10 -9 16 1 6 10 9 11 9 2 0 -7 9 -13 19 -13 11 0 22 -4 25 -9 3 -5 15
-7 26 -4 11 3 26 0 33 -6 8 -6 16 -9 18 -7 4 4 4 -143 0 -169 -1 -5 -5 -3 -10
5 -6 8 -7 18 -4 24 3 5 1 6 -6 2 -6 -4 -9 -12 -6 -17 4 -5 1 -9 -4 -9 -6 0
-11 7 -11 16 0 8 -5 12 -10 9 -6 -4 -7 -11 -4 -17 4 -6 -2 -6 -15 1 -24 13
-29 23 -7 15 8 -3 17 -1 20 4 3 5 17 8 31 7 14 -2 25 1 25 6 0 5 -5 9 -11 9
-5 0 -8 4 -5 8 7 12 -12 38 -21 29 -4 -5 -1 -12 7 -17 10 -6 11 -10 3 -10 -12
0 -35 34 -39 57 -1 7 5 18 14 25 12 10 14 10 8 1 -5 -9 -2 -11 9 -6 12 4 13 8
5 13 -9 6 -9 9 1 13 8 3 4 5 -8 3 -11 -1 -29 -8 -39 -16 -15 -12 -16 -12 -9
-1 6 10 4 12 -6 6 -11 -7 -12 -6 -2 6 10 12 8 15 -10 16 -17 2 -19 0 -7 -7 8
-5 11 -10 6 -10 -5 0 -18 8 -29 17 -12 11 -17 12 -12 4 6 -10 4 -12 -6 -6 -12
8 -12 6 0 -8 11 -14 11 -17 0 -17 -8 0 -5 -6 7 -14 16 -12 17 -17 6 -28 -11
-11 -12 -10 -7 5 4 9 3 17 -2 17 -15 0 -9 -45 7 -66 12 -14 12 -16 1 -9 -10 6
-12 4 -6 -5 6 -9 4 -11 -5 -5 -9 6 -11 4 -5 -5 5 -8 4 -11 -2 -7 -5 3 -9 40
-9 82 1 41 -2 75 -6 75 -5 0 -8 -36 -8 -80 0 -77 3 -86 33 -81 4 0 7 -5 7 -12
0 -8 4 -7 10 3 8 13 10 13 10 1 0 -11 4 -9 14 5 14 19 15 19 13 0 -2 -16 9
-23 58 -37 52 -14 947 -255 1153 -310 41 -11 122 -33 181 -49 414 -112 1121
-299 1143 -302 15 -2 30 -7 34 -11 11 -11 34 -8 34 4 0 5 -4 8 -9 5 -5 -3 -14
1 -21 10 -10 11 -15 12 -20 3 -6 -8 -9 -8 -14 0 -4 6 -2 11 4 11 6 0 8 4 5 10
-3 5 5 15 18 21 26 12 51 50 53 81 2 29 3 31 17 21 6 -6 20 -9 29 -8 25 4 33
-12 33 -77 1 -38 -3 -59 -12 -62 -17 -7 -17 6 0 23 6 8 7 11 1 8 -6 -3 -11 0
-11 8 0 8 3 12 7 10 4 -2 6 6 5 18 -1 14 -8 22 -21 22 -11 0 -19 7 -18 16 1 9
-4 16 -11 16 -6 0 -11 -14 -10 -34 2 -33 -9 -45 -18 -21 -3 7 -4 3 -4 -8 1
-13 6 -20 13 -17 17 6 28 -17 15 -30 -9 -9 -11 -8 -6 6 8 19 -10 24 -21 5 -4
-6 -3 -8 3 -5 5 3 10 0 10 -8 0 -8 -4 -12 -8 -10 -4 3 -5 -5 -1 -17 5 -20 6
-21 12 -3 6 18 7 17 12 -3 6 -22 41 -31 53 -13 3 6 -4 8 -15 6 -24 -5 -47 29
-28 41 7 5 8 3 3 -6 -5 -9 -4 -11 3 -6 8 5 10 1 6 -11 -4 -14 -4 -15 4 -4 8
11 10 11 15 0 4 -10 6 -10 6 -1 1 6 5 12 10 12 5 0 8 -11 5 -25 -2 -14 -1 -25
4 -25 4 0 32 24 61 54 46 47 53 58 49 85 -4 29 -3 31 24 29 16 -1 32 -6 34
-10 3 -4 17 -8 31 -8 18 0 24 4 20 14 -4 11 -1 13 10 9 11 -4 14 -2 9 5 -4 7
-2 12 3 12 6 0 24 14 41 32 l30 31 0 1399 c0 1323 -1 1399 -18 1396 -9 -1 -22
1 -28 4 -6 4 -26 10 -44 13 -18 3 -37 8 -42 11 -5 3 -21 8 -35 10 -15 3 -29 6
-30 8 -2 1 -3 48 -4 102 l-1 100 -45 12 c-24 7 -49 10 -54 7 -5 -4 -9 0 -9 7
0 11 -2 10 -9 0 -6 -11 -10 -10 -15 3 -3 9 -12 15 -20 12 -7 -3 -17 -2 -22 3
-5 5 -169 51 -364 104 -284 76 -896 240 -1840 493 -30 8 -133 34 -229 59 -95
24 -176 46 -180 48 -4 3 -30 -19 -58 -47z m106 18 c15 0 25 -6 24 -13 -4 -16
14 -16 20 1 2 7 8 8 13 3 5 -5 4 -11 -4 -13 -6 -3 -9 -9 -6 -15 4 -6 -1 -6
-13 1 -11 6 -24 7 -28 3 -5 -4 -6 -2 -2 3 3 7 -7 10 -26 9 -42 -2 -41 -2 -27
-19 14 -17 0 -21 -16 -5 -8 8 -15 6 -24 -5 -8 -10 -9 -15 -1 -15 6 0 11 5 11
11 0 5 5 7 10 4 6 -4 7 -12 3 -18 -4 -7 5 -4 19 5 26 17 27 17 25 -2 -1 -11
-7 -22 -15 -25 -7 -2 -11 -1 -7 4 3 5 -11 8 -30 7 -20 -2 -38 1 -41 6 -3 4
-10 6 -15 3 -5 -3 -6 1 -3 10 8 19 44 40 63 36 12 -2 12 0 3 11 -17 21 5 43
26 26 8 -7 26 -13 41 -13z m78 -30 c-4 -8 -1 -17 5 -21 7 -4 8 -3 4 4 -4 7 -2
12 4 12 6 0 8 4 5 10 -3 5 0 7 9 4 12 -5 10 -11 -11 -35 -25 -28 -27 -28 -46
-12 -19 18 -20 17 -7 -6 15 -29 -2 -44 -36 -31 -12 5 -25 6 -30 2 -4 -4 -4 -2
0 5 7 13 46 13 46 0 0 -4 5 -5 11 -1 8 5 8 9 -1 14 -6 4 -11 10 -11 14 3 23 0
30 -8 16 -6 -8 -7 -18 -5 -22 3 -4 -3 -5 -12 -1 -12 4 -14 8 -6 11 10 3 10 7
1 18 -6 8 -15 12 -19 9 -5 -3 -11 -1 -15 4 -3 6 3 8 15 5 11 -2 29 -6 40 -8
11 -3 24 -7 30 -11 5 -3 14 4 20 15 12 23 25 27 17 5z m-192 -65 c4 -6 10 -8
15 -5 5 3 11 1 14 -4 3 -5 15 -7 26 -4 12 3 20 0 20 -6 0 -7 5 -9 10 -6 6 3
13 -1 16 -10 6 -13 8 -14 15 -3 7 10 9 10 9 -2 0 -12 2 -13 9 -1 6 9 8 4 8
-17 -2 -26 -5 -29 -26 -25 -13 2 -31 8 -40 12 -9 5 -22 6 -28 4 -7 -3 -13 -1
-13 5 0 8 -13 11 -51 13 -11 0 -16 10 -16 30 0 28 19 40 32 19z m-105 -44 c0
5 7 0 15 -10 8 -11 15 -14 15 -8 0 10 3 10 14 0 15 -14 0 -31 -19 -20 -5 3 -3
-3 5 -14 14 -17 13 -18 -1 -7 -13 10 -16 10 -16 -2 0 -8 5 -11 11 -8 6 3 8 3
4 -2 -4 -4 -3 -14 3 -22 6 -7 10 -13 8 -14 -30 -6 -38 -6 -38 -1 3 19 -2 25
-10 13 -6 -9 -15 -11 -27 -6 -11 4 -25 9 -33 11 -14 3 -31 22 -31 37 0 7 16
11 33 8 4 0 7 5 7 13 0 8 7 22 16 31 12 12 19 13 30 4 8 -6 14 -8 14 -3z m60
-61 c0 -8 -6 -15 -12 -16 -10 0 -10 -2 0 -6 15 -6 16 -30 0 -39 -8 -5 -9 -2
-5 9 3 9 2 19 -4 23 -7 4 -6 10 0 18 6 7 8 16 4 19 -3 4 -1 7 5 7 7 0 12 -7
12 -15z m50 10 c0 -2 -6 -8 -13 -14 -10 -8 -14 -7 -14 2 0 8 6 14 14 14 7 0
13 -1 13 -2z m2700 -505 c0 9 5 7 15 -6 8 -10 15 -15 15 -10 0 10 30 -13 30
-24 0 -3 -7 -7 -15 -7 -10 0 -14 6 -10 16 3 11 0 10 -10 -3 -8 -11 -15 -15
-15 -10 0 6 -7 11 -15 11 -8 0 -15 -4 -15 -9 0 -4 7 -8 16 -8 8 0 13 -4 9 -9
-3 -6 -15 -8 -27 -6 -24 5 -37 15 -20 15 7 0 12 5 12 11 0 5 -4 8 -8 5 -7 -4
-9 30 -3 53 1 2 10 -4 21 -14 14 -13 20 -14 20 -5z m84 -17 c4 -5 12 -9 17 -9
5 -1 13 -2 18 -3 12 -1 -49 -66 -63 -66 -6 -1 -10 -7 -8 -15 3 -12 1 -12 -9
-3 -6 6 -18 9 -25 6 -8 -3 -14 -1 -14 5 0 5 -10 9 -22 8 -11 0 -23 5 -25 12
-3 8 3 11 19 8 12 -2 29 2 37 8 8 6 24 11 35 11 16 0 20 6 19 23 -3 22 7 29
21 15z m53 -79 c1 -41 -1 -45 -18 -41 -12 3 -17 1 -12 -5 4 -7 1 -8 -7 -3 -9
6 -11 4 -5 -5 6 -9 4 -11 -5 -5 -9 6 -11 4 -5 -5 5 -8 4 -11 -2 -7 -5 3 -10 0
-10 -8 0 -8 4 -15 9 -15 4 0 8 5 8 11 0 5 5 7 10 4 6 -4 8 -11 5 -16 -3 -5 1
-6 10 -2 13 5 14 7 3 14 -10 7 -10 9 2 9 13 0 13 1 0 10 -13 8 -13 10 1 10 11
0 16 -9 17 -30 1 -29 -1 -30 -31 -24 -18 3 -38 7 -44 7 -9 0 -10 4 -2 14 9 10
8 13 -2 13 -8 0 -5 6 7 15 16 13 16 14 2 9 -20 -7 -23 3 -8 26 8 12 10 12 10
1 0 -8 3 -12 6 -8 3 3 5 8 4 12 -1 5 49 65 54 65 1 0 2 -21 3 -46z m-157 -25
c0 -5 3 -8 8 -6 18 11 45 -11 48 -39 2 -16 0 -24 -4 -19 -4 6 -20 11 -36 12
-16 1 -34 7 -40 14 -8 8 -6 10 9 7 11 -1 23 -7 27 -13 5 -6 8 -4 8 5 0 12 2
12 9 2 7 -11 9 -11 14 1 4 10 0 14 -11 12 -9 -1 -23 3 -31 9 -11 8 -13 8 -7
-1 5 -9 2 -11 -10 -6 -13 5 -14 8 -5 11 11 4 11 6 0 13 -11 7 -10 9 4 9 9 0
17 -5 17 -11z m189 -136 c-9 -9 -8 -13 0 -13 6 0 14 7 17 15 4 8 10 12 16 9 5
-3 7 -13 4 -21 -4 -9 -2 -11 7 -6 23 14 56 11 50 -5 -5 -12 -2 -12 15 -3 14 7
23 8 27 1 4 -6 12 -7 18 -4 7 4 -6 -12 -27 -34 -22 -23 -43 -39 -47 -36 -4 2
-11 0 -14 -6 -5 -8 -11 -8 -20 0 -8 7 -18 9 -23 7 -4 -3 -14 -2 -22 3 -19 11
-21 107 -3 107 9 0 10 -4 2 -14z m167 -129 c0 -47 -2 -81 -4 -75 -2 6 -8 8
-13 5 -6 -3 -16 -1 -23 5 -7 6 -20 9 -29 5 -12 -4 -15 2 -13 33 2 27 8 39 21
41 11 3 15 0 10 -7 -3 -6 -12 -8 -18 -5 -9 5 -9 4 0 -6 9 -9 9 -19 2 -32 -10
-18 -8 -18 11 -8 12 6 24 18 27 26 5 13 7 13 14 2 6 -9 8 -6 6 10 -1 14 -5 18
-11 12 -6 -6 -15 -10 -20 -10 -6 1 -1 9 12 20 21 17 21 19 3 17 -11 0 -17 -5
-14 -11 3 -5 1 -6 -6 -2 -17 11 6 37 25 29 8 -3 14 -2 13 3 -2 12 0 34 4 34 1
0 3 -39 3 -86z m-138 13 c6 3 12 0 12 -6 0 -6 6 -10 13 -8 7 1 12 -8 12 -22 0
-24 -29 -39 -41 -20 -3 5 -9 7 -14 4 -11 -7 -24 14 -26 42 -1 17 3 20 15 14 9
-5 22 -6 29 -4z m97 -26 c3 -5 2 -12 -3 -15 -5 -3 -9 1 -9 9 0 17 3 19 12 6z
m-3099 -1815 c-1 -8 -8 -21 -15 -30 -12 -14 -11 -19 3 -35 12 -13 14 -21 6
-26 -6 -4 -9 -13 -6 -20 3 -9 -3 -12 -20 -10 -23 2 -59 25 -40 25 5 0 3 7 -4
15 -11 13 -10 18 9 31 12 9 20 22 17 30 -3 8 0 11 8 8 7 -3 19 2 26 11 15 19
19 19 16 1z m136 -251 c4 -5 16 -1 30 10 20 18 21 18 8 1 -22 -29 -20 -44 11
-77 16 -17 23 -29 15 -26 -7 3 -18 1 -24 -5 -8 -8 -15 -8 -25 0 -8 7 -17 9
-21 5 -3 -4 -13 -8 -22 -9 -11 -2 -12 1 -4 10 7 10 6 17 -5 26 -14 12 -14 15
1 31 10 11 13 23 8 31 -5 7 -9 19 -10 26 -2 11 1 11 14 0 9 -7 20 -17 24 -23z
m3008 -455 c0 -12 -7 -20 -17 -21 -15 -1 -15 -2 -2 -6 12 -3 16 -17 15 -61 -1
-48 -5 -61 -28 -84 -15 -15 -30 -23 -33 -17 -4 5 0 9 7 9 9 0 9 3 -2 10 -13 9
-13 10 0 11 8 1 18 1 22 0 4 0 4 12 2 27 -5 25 -4 25 8 9 13 -17 14 -16 13 12
0 16 -4 33 -8 37 -4 4 -1 14 6 22 9 13 9 14 0 8 -8 -4 -13 -2 -13 5 0 17 -11
5 -15 -18 -2 -10 -4 -19 -4 -20 -1 -2 -1 -6 0 -9 0 -4 -5 -11 -13 -15 -10 -7
-10 -9 0 -9 6 0 12 -5 12 -11 0 -5 -4 -8 -9 -4 -5 3 -13 0 -17 -6 -4 -7 -3 -9
4 -5 6 3 13 2 16 -3 3 -5 -1 -11 -8 -14 -10 -4 -13 -15 -10 -31 2 -15 0 -26
-4 -26 -11 0 -10 96 1 106 10 10 9 26 -1 20 -4 -2 -8 3 -9 13 -1 10 12 25 28
35 16 9 29 22 29 27 0 6 5 7 10 4 6 -3 10 1 10 9 0 9 2 16 5 16 3 0 5 -9 5
-20z m-115 -71 c13 -13 14 -167 0 -164 -5 1 -21 7 -35 12 -14 6 -27 9 -30 8
-3 -2 -6 14 -7 36 -2 21 1 39 6 39 5 0 8 -8 6 -17 -1 -10 3 -24 9 -32 9 -12 8
-13 -3 -6 -9 5 -12 4 -8 -3 7 -11 20 -10 49 3 10 4 15 12 12 17 -4 6 -9 6 -14
-2 -5 -9 -9 -9 -14 -1 -4 6 -2 11 3 11 6 0 11 5 11 11 0 5 -4 8 -9 4 -5 -3
-13 0 -17 6 -5 8 -3 9 6 4 9 -5 11 -4 6 4 -4 7 -2 10 5 9 7 -2 13 11 14 32 2
19 1 29 -2 23 -3 -7 -9 -13 -14 -13 -6 0 -8 4 -5 8 3 5 -1 9 -9 9 -8 0 -17 -7
-19 -14 -3 -8 -2 -12 3 -8 13 8 42 -5 35 -17 -3 -5 -11 -5 -19 2 -10 8 -15 8
-21 -1 -5 -8 -3 -9 6 -4 9 5 11 4 6 -3 -13 -21 -24 -13 -22 18 0 17 5 30 11
30 5 0 3 5 -5 10 -11 8 -5 9 20 5 19 -4 39 -10 45 -16z m91 -23 c1 -7 -4 -13
-11 -13 -7 0 -11 7 -10 16 2 9 4 18 4 20 2 8 15 -10 17 -23z m-130 -74 c-3 -3
0 -12 6 -21 10 -13 10 -14 -2 -4 -16 15 -23 46 -8 37 5 -3 7 -9 4 -12z m-63
-63 c9 -9 16 -25 14 -36 -4 -28 -27 -54 -40 -46 -7 4 -8 0 -4 -11 6 -14 3 -17
-9 -12 -11 4 -15 2 -11 -8 3 -8 0 -19 -6 -25 -10 -8 -12 5 -12 54 1 36 5 68
10 72 4 4 5 2 0 -6 -5 -10 -4 -12 4 -7 6 4 9 12 6 17 -4 5 -1 9 4 9 14 0 14
-23 1 -36 -8 -8 -6 -15 6 -25 15 -12 17 -12 9 0 -6 10 -4 12 5 6 9 -6 11 -4 5
5 -5 8 -4 11 3 6 6 -3 14 -1 18 5 4 8 3 9 -4 5 -11 -6 -14 0 -11 20 2 13 -26
23 -45 18 -12 -4 -16 -2 -11 5 9 16 45 10 68 -10z m-112 -34 c8 5 8 2 1 -11
-5 -11 -8 -27 -7 -36 2 -10 0 -18 -5 -18 -10 0 -22 28 -25 57 -1 18 1 20 11
12 7 -6 18 -8 25 -4z"/>
<path d="M745 4130 c-3 -5 -5 -10 -3 -11 33 -8 38 -7 27 7 -14 17 -16 17 -24
4z"/>
<path d="M706 4085 c-17 -13 -18 -17 -6 -28 8 -6 11 -8 7 -3 -4 5 0 18 10 28
19 22 15 23 -11 3z"/>
<path d="M866 4071 c-4 -5 -2 -12 3 -15 5 -4 12 -2 15 3 4 5 2 12 -3 15 -5 4
-12 2 -15 -3z"/>
<path d="M678 4023 c10 -4 10 -8 2 -19 -10 -10 -8 -12 9 -9 12 2 21 -1 21 -8
0 -8 3 -8 9 1 7 11 9 10 15 -3 3 -9 11 -13 16 -10 6 4 17 1 25 -5 8 -7 15 -9
15 -5 0 4 6 2 14 -4 10 -8 16 -9 21 -1 6 10 5 11 -15 14 -6 0 -15 8 -20 16 -9
13 -10 13 -10 0 0 -12 -2 -12 -9 -2 -4 7 -17 15 -27 17 -10 2 -20 4 -21 5 -2
2 -7 3 -12 4 -5 0 -13 4 -17 9 -4 4 -12 7 -18 6 -6 0 -5 -3 2 -6z"/>
<path d="M555 3980 c-3 -5 -3 -10 0 -10 4 0 -1 -8 -11 -17 -10 -10 -21 -18
-25 -18 -16 0 -19 -13 -4 -25 8 -7 15 -9 15 -5 0 4 7 2 15 -5 12 -10 19 -10
27 -2 9 9 17 7 32 -6 21 -17 21 -17 4 3 -19 23 -21 35 -6 53 7 8 7 12 -1 12
-7 0 -9 5 -5 13 4 6 4 9 -1 5 -4 -4 -14 -3 -21 3 -8 7 -14 7 -19 -1z m32 -41
c-5 -30 -23 -44 -40 -31 -8 7 -16 9 -19 6 -3 -3 -9 0 -14 7 -4 7 -3 10 3 6 13
-8 55 37 46 48 -5 5 0 3 9 -4 10 -7 16 -22 15 -32z"/>
<path d="M557 3940 c-13 -12 -15 -20 -7 -25 14 -9 23 0 27 25 3 24 3 24 -20 0z"/>
<path d="M3364 3424 c2 -12 12 -19 29 -19 14 -1 24 2 21 7 -3 5 -9 7 -12 4 -3
-3 -13 1 -23 10 -16 14 -17 14 -15 -2z"/>
<path d="M3478 3399 c10 -14 10 -18 -5 -24 -10 -5 -25 -9 -33 -9 -22 -2 -41
-16 -35 -26 4 -7 34 -7 43 0 1 2 7 3 12 4 6 0 10 5 10 9 -1 4 7 16 17 25 11 9
17 16 14 15 -2 -2 -11 3 -20 10 -14 10 -14 10 -3 -4z m-33 -48 c-9 -8 -36 -10
-30 -2 2 4 11 8 20 8 8 0 13 -3 10 -6z"/>
<path d="M3505 3340 c-10 -11 -15 -20 -10 -20 4 0 1 -8 -6 -17 -11 -15 -11
-16 0 -6 7 6 19 9 26 7 9 -4 12 4 11 25 0 17 -1 31 -2 31 0 0 -9 -9 -19 -20z
m12 -15 c0 -8 -4 -12 -9 -9 -5 3 -6 10 -3 15 9 13 12 11 12 -6z"/>
<path d="M3584 3155 c-4 -8 -9 -13 -13 -11 -4 3 -7 -8 -6 -23 0 -20 4 -27 14
-23 9 3 12 1 7 -6 -4 -8 -2 -10 7 -6 8 3 18 0 22 -6 5 -8 11 -8 21 1 8 6 14 8
14 3 0 -4 13 5 30 21 31 30 31 52 0 35 -15 -8 -22 -6 -30 7 -11 17 -11 17 -6
0 4 -12 2 -17 -6 -14 -7 2 -12 11 -10 18 3 11 1 12 -9 2 -18 -18 -32 -16 -25
2 3 8 3 15 0 15 -2 0 -7 -7 -10 -15z m42 -28 c12 -7 46 -2 67 9 6 4 1 -4 -13
-17 -13 -13 -28 -24 -31 -24 -4 0 -11 -3 -15 -7 -8 -9 -66 31 -60 41 6 9 37 8
52 -2z"/>
<path d="M3601 3109 c13 -10 27 -15 32 -12 13 8 -9 26 -34 28 -21 2 -21 1 2
-16z"/>
<path d="M3701 3006 c-15 -17 -1 -28 19 -15 11 6 12 9 2 9 -7 0 -10 5 -7 10 9
15 -1 12 -14 -4z"/>
<path d="M3565 3031 c1 -9 7 -17 13 -17 7 -1 13 -2 15 -4 14 -11 33 -4 35 14
1 15 -1 17 -7 7 -7 -11 -9 -11 -13 0 -6 19 -46 19 -43 0z m39 -7 c3 -8 2 -12
-4 -9 -6 3 -10 10 -10 16 0 14 7 11 14 -7z"/>
<path d="M551 1176 c-21 -21 -29 -36 -22 -41 6 -3 8 -12 5 -18 -5 -8 -3 -8 7
1 7 6 18 12 24 12 5 0 3 -4 -5 -10 -8 -5 -11 -12 -7 -16 4 -4 14 1 22 12 13
17 12 21 -5 35 -18 16 -18 16 3 38 12 11 19 21 16 21 -3 0 -20 -15 -38 -34z
m29 -40 c0 -2 -37 0 -48 3 -2 1 0 6 3 11 5 9 45 -3 45 -14z"/>
<path d="M714 963 c6 -9 3 -20 -8 -32 -15 -16 -15 -20 -1 -31 8 -7 12 -17 8
-24 -3 -6 3 -3 14 7 18 16 21 16 27 2 3 -9 11 -13 17 -9 9 5 6 11 -6 21 -11 7
-15 13 -11 13 5 0 3 6 -3 13 -6 8 -9 17 -6 20 3 4 2 5 -1 2 -4 -2 -14 4 -23
13 -9 10 -12 12 -7 5z m25 -59 c-9 -11 -15 -12 -25 -3 -11 9 -12 15 -3 25 9
11 15 12 25 3 11 -9 12 -15 3 -25z"/>
<path d="M716 921 c-4 -5 -2 -12 3 -15 5 -4 12 -2 15 3 4 5 2 12 -3 15 -5 4
-12 2 -15 -3z"/>
<path d="M3671 456 c-8 -10 -9 -16 -1 -21 5 -3 10 -5 11 -3 4 18 7 38 4 38 -1
0 -8 -6 -14 -14z"/>
<path d="M3616 372 c-2 -4 -1 -14 4 -22 7 -11 9 -9 7 8 -1 24 -3 26 -11 14z"/>
<path d="M3606 301 c-4 -5 -2 -12 3 -15 5 -4 12 -2 15 3 4 5 2 12 -3 15 -5 4
-12 2 -15 -3z"/>
<path d="M3464 213 c2 -10 6 -17 10 -16 15 3 16 11 2 22 -12 10 -14 9 -12 -6z"/>
<path d="M3509 213 c-13 -16 -12 -17 4 -4 9 7 17 15 17 17 0 8 -8 3 -21 -13z"/>
<path d="M3384 226 c1 -8 5 -18 8 -22 4 -3 5 1 4 10 -1 8 -5 18 -8 22 -4 3 -5
-1 -4 -10z"/>
<path d="M493 3873 c4 -6 1 -18 -6 -25 -11 -11 -15 -54 -8 -76 1 -2 18 10 38
25 20 15 47 28 60 28 13 1 22 5 21 10 -2 6 -7 9 -12 7 -4 -1 -14 3 -22 9 -8 6
-14 8 -14 4 0 -4 -7 -2 -15 5 -8 7 -15 9 -15 5 0 -4 -8 -1 -17 6 -9 8 -14 9
-10 2z m45 -23 c1 -2 6 -3 11 -4 5 0 12 -4 15 -8 3 -5 3 -6 0 -3 -4 2 -23 -9
-44 -25 l-37 -29 2 26 c0 15 6 28 13 31 7 2 10 7 7 12 -4 7 24 6 33 0z"/>
<path d="M514 3835 c-4 -8 -9 -13 -13 -10 -4 2 -8 -2 -8 -10 0 -11 5 -10 24 2
12 8 20 19 17 24 -8 13 -14 11 -20 -6z"/>
<path d="M519 1269 c-7 -39 -7 -49 0 -49 6 0 13 5 17 11 4 8 9 7 15 -2 6 -10
11 -11 19 -3 8 8 7 14 -5 24 -8 7 -15 9 -15 5 0 -4 -7 -2 -15 5 -8 7 -15 11
-16 9z m16 -18 c3 -5 2 -12 -3 -15 -5 -3 -9 1 -9 9 0 17 3 19 12 6z"/>
<path d="M474 1185 c0 -13 3 -22 7 -19 8 4 6 30 -2 38 -3 3 -5 -5 -5 -19z"/>
<path d="M619 1175 c-1 -3 -2 -13 -3 -22 -1 -10 -4 -23 -8 -29 -4 -6 -2 -11 5
-11 8 0 13 14 13 34 0 29 -4 43 -7 28z"/>
<path d="M814 983 c7 -12 -27 -37 -37 -27 -3 3 -4 -2 -2 -13 1 -10 8 -17 15
-15 7 1 18 -2 24 -7 9 -8 13 -7 13 4 0 8 -4 12 -9 9 -4 -3 -8 2 -8 11 0 9 4
14 9 11 11 -7 8 21 -4 31 -4 4 -5 3 -1 -4z"/>
<path d="M3393 279 c-1 -11 5 -17 16 -16 10 0 18 8 16 16 -3 21 -31 22 -32 0z"/>
<path d="M3312 207 l-23 -13 21 -19 c11 -10 20 -16 21 -14 1 4 5 59 4 59 0 -1
-10 -6 -23 -13z m12 -23 c3 -8 2 -12 -4 -9 -6 3 -10 10 -10 16 0 14 7 11 14
-7z"/>
</g>
</svg>
